<?xml version="1.0" encoding="utf-8"?>
<!-- Generator: Adobe Illustrator 21.0.2, SVG Export Plug-In . SVG Version: 6.00 Build 0)  -->
<svg version="1.1" id="Layer_1" xmlns="http://www.w3.org/2000/svg" xmlns:xlink="http://www.w3.org/1999/xlink" x="0px" y="0px"
	 viewBox="0 0 850.4 850.4" style="enable-background:new 0 0 850.4 850.4;" xml:space="preserve">
<style type="text/css">
	.st0{display:none;fill:url(#SVGID_1_);}
	.st1{fill:#77449A;}
	.st2{fill:url(#SVGID_2_);}
	.st3{fill:url(#SVGID_3_);}
	.st4{fill:url(#SVGID_4_);}
	.st5{fill:url(#SVGID_5_);}
	.st6{fill:#F7941D;}
	.st7{fill:#070508;}
</style>
<radialGradient id="SVGID_1_" cx="425.1968" cy="425.1968" r="996.36" gradientUnits="userSpaceOnUse">
	<stop  offset="0" style="stop-color:#FFFFFF"/>
	<stop  offset="1" style="stop-color:#C9CACC"/>
</radialGradient>
<rect x="0" class="st0" width="850.4" height="850.4"/>
<g>
	<path class="st1" d="M419.8,190C332.4,190,256,236.7,214,306.4l26.1,17.1c36.4-61.2,103.2-102.2,179.6-102.2
		c78,0,146.1,42.8,182,106.2l26.1-17.1C586.4,238.4,508.7,190,419.8,190z M625.9,463.9L625.9,463.9c-2.5,15.6-6.8,30.6-12.6,44.8
		l26.2,18c10.1-23,16.7-47.8,19.1-73.9L625.9,463.9z M568.2,577.1c-37.9,38.3-90.4,62-148.5,62c-57.3,0-109.2-23.1-147-60.5
		l-35.3,7.8c44,51.3,109.3,83.8,182.3,83.8c73.7,0,139.6-33.2,183.6-85.4L568.2,577.1z M213.1,460.9l-32.6-11.1
		c2.3,28.8,9.7,56.2,21.4,81.2l26.1-17.9C220.9,496.7,215.8,479.2,213.1,460.9z"/>
	<linearGradient id="SVGID_2_" gradientUnits="userSpaceOnUse" x1="257.1523" y1="579.163" x2="257.1523" y2="297.7386">
		<stop  offset="0" style="stop-color:#77449A"/>
		<stop  offset="1" style="stop-color:#340947"/>
	</linearGradient>
	<path class="st2" d="M125.5,297.7c0,0,122.6,118.2,263.3,88.5c0,0,0,157.4-186.4,192.9c0,0,123.8-58.6,131.3-161
		C333.7,418.1,181.4,424.7,125.5,297.7z"/>
	<linearGradient id="SVGID_3_" gradientUnits="userSpaceOnUse" x1="210.2785" y1="552.8701" x2="210.2785" y2="343.4338">
		<stop  offset="0" style="stop-color:#77449A"/>
		<stop  offset="1" style="stop-color:#340947"/>
	</linearGradient>
	<path class="st3" d="M306.3,438.5c0,0-12.5,78-95.7,114.4c0,0,39.2-33.2,47.9-91.4c0,0-118-23.4-144.2-118
		C114.3,343.4,181.7,442.6,306.3,438.5z"/>
	<linearGradient id="SVGID_4_" gradientUnits="userSpaceOnUse" x1="582.096" y1="579.163" x2="582.096" y2="297.7386">
		<stop  offset="0" style="stop-color:#77449A"/>
		<stop  offset="1" style="stop-color:#340947"/>
	</linearGradient>
	<path class="st4" d="M713.7,297.7c0,0-122.6,118.2-263.3,88.5c0,0,0,157.4,186.4,192.9c0,0-123.8-58.6-131.3-161
		C505.6,418.1,657.9,424.7,713.7,297.7z"/>
	<linearGradient id="SVGID_5_" gradientUnits="userSpaceOnUse" x1="628.9698" y1="552.8701" x2="628.9698" y2="343.4338">
		<stop  offset="0" style="stop-color:#77449A"/>
		<stop  offset="1" style="stop-color:#340947"/>
	</linearGradient>
	<path class="st5" d="M533,438.5c0,0,12.5,78,95.7,114.4c0,0-39.2-33.2-47.9-91.4c0,0,118-23.4,144.2-118
		C725,343.4,657.5,442.6,533,438.5z"/>
	<path class="st6" d="M513.1,365.5c-1-1.1-21.9-14.5-42.5-27.6v-10c0-3.4-2.8-6.2-6.2-6.2c-3.4,0-6.2,2.8-6.2,6.2l0,2.2
		c-15.6-9.9-26.9-17.9-26.9-17.9s1.1-23.5,1.4-47.6c0.3-24.1-26.5-24.1-26.1,0c0.3,24.1,1.4,47.6,1.4,47.6s-11.2,8.1-26.9,17.9v-2.2
		c0-3.4-2.8-6.2-6.2-6.2c-3.4,0-6.2,2.8-6.2,6.2v10c-20.7,13.1-41.6,26.5-42.5,27.6c-1.9,2.2-6.2,13.7-4.9,14.6
		c0.7,0.5,16.1-6.7,32.4-14.2l0,2.3c0,0.6,0.5,1.1,1.1,1.1c0.6,0,1.1-0.5,1.1-1.1v-3.3c1.5-0.7,3-1.4,4.5-2.1v1.3
		c0,0.6,0.5,1.1,1.1,1.1c0.6,0,1.1-0.5,1.1-1.1v-2.4c3.1-1.4,6.1-2.8,8.9-4v2.4c0,0.6,0.5,1.1,1.1,1.1c0.6,0,1.1-0.5,1.1-1.1l0-3.4
		c3.1-1.4,5.9-2.6,8.4-3.6l0,2.1c0,0.6,0.5,1.1,1.1,1.1c0.6,0,1.1-0.5,1.1-1.1v-3c3.5-1.4,6-2.3,6.9-2.3c5.1,0,17,0,17,0
		s1.1,40.2,2.7,50.1c0.6,3.7,1.7,9,2.9,14.3c-7.8,5-19.5,12.6-21.6,14.3c-3.2,2.5-5.7,4.6-5.8,6.2c-0.1,1.7-1.2,5.2,0.4,4.9
		c1.3-0.3,23.5-7.7,31.3-10.3c0.6,1.5,1.1,2.4,1.5,2.4c0.4,0,0.9-0.9,1.5-2.4c7.8,2.6,30,10.1,31.3,10.3c1.6,0.3,0.5-3.2,0.4-4.9
		c-0.1-1.7-2.6-3.7-5.8-6.2c-2.1-1.7-13.9-9.3-21.6-14.3c1.2-5.3,2.4-10.6,2.9-14.3c1.6-9.8,2.7-50.1,2.7-50.1s11.9,0,17,0
		c0.8,0,3.3,0.9,6.9,2.3l0,3c0,0.6,0.5,1.1,1.1,1.1c0.6,0,1.1-0.5,1.1-1.1v-2.1c2.5,1,5.3,2.3,8.4,3.6v3.4c0,0.6,0.5,1.1,1.1,1.1
		c0.6,0,1.1-0.5,1.1-1.1v-2.4c2.8,1.3,5.8,2.6,8.9,4l0,2.4c0,0.6,0.5,1.1,1.1,1.1c0.6,0,1.1-0.5,1.1-1.1l0-1.4
		c1.5,0.7,3,1.4,4.5,2.1v3.3c0,0.6,0.5,1.1,1.1,1.1c0.6,0,1.1-0.5,1.1-1.1v-2.3c16.2,7.5,31.7,14.6,32.4,14.2
		C519.3,379.1,515,367.7,513.1,365.5z"/>
	<g>
		<path class="st7" d="M421.7,610.3c0-4.4,0.2-8.8-0.1-13.2c-0.1-2.8,0.8-4.6,2.8-6.6c13.6-13.4,27-26.9,40.5-40.3
			c0.2-0.2,0.3-0.3,0.5-0.5c1.3-1.4,1.4-2.2,0.1-3.6c-3.3-3.4-6.7-6.8-10.1-10.1c-0.9-0.9-1.7-0.9-2.8,0.1c-1.9,1.7-3.7,3.4-5.5,5.2
			c-3.5,3.5-7,7-10.5,10.5c-1,1-1.1,1,0,2.1c1.7,1.7,3.4,3.4,5.1,5c0.8,0.7,1.2,1.5,1,2.6c-0.3,1.9-0.1,3.8-0.1,5.7
			c0,0.3-0.1,0.7-0.1,1.3c-1.3-1.3-2.5-2.5-3.7-3.6c-5.4-5.4-10.9-10.9-16.3-16.3c-0.5-0.5-0.7-1-0.7-1.7c0-1.9,0-3.9,0-5.9
			c0-0.5,0-1,0.4-1.7c1.9,2,3.8,3.9,5.7,5.8c0.9,0.9,1.9,1.8,2.7,2.8c0.6,0.7,1,0.4,1.5-0.1c2.8-2.8,5.6-5.6,8.3-8.4
			c2.3-2.3,4.6-4.6,6.9-7c0.1-0.1,0.2-0.2,0.3-0.3c1.5-1.8,1.5-2.3-0.1-4c-5.8-5.8-11.6-11.5-17.3-17.3c-2.6-2.6-5.2-5.2-7.9-7.8
			c-0.4-0.4-0.7-0.8-0.7-1.5c0-5.2,0-10.5,0-15.7c0-0.1,0-0.3,0-0.5c0.5,0,0.8,0.5,1.1,0.7c7.7,7.7,15.4,15.4,23.1,23.2
			c7.6,7.6,15.2,15.2,22.7,22.7c3.4,3.4,6.8,6.7,10.1,10.1c0.9,1,1.9,2,2.6,3.1c1.4,2.2,1.1,4-0.8,6.2c-2.1,2.6-4.6,4.8-7,7.2
			c-7,7-14,14-21,21c-4,4-8,7.9-11.9,11.9c-4.9,4.9-9.7,9.9-14.6,14.8c-1.4,1.4-2.8,2.8-4.1,4.3
			C421.9,610.4,421.8,610.3,421.7,610.3z"/>
		<path class="st7" d="M417.6,484.9c0,0.6,0,0.9,0,1.3c0,5,0,9.9,0,14.9c0,0.7-0.1,1.2-0.6,1.7c-5.9,5.9-11.8,11.7-17.7,17.6
			c-5.8,5.8-11.6,11.6-17.4,17.4c-2,2-4.1,4.1-6.2,6.1c-2.2,2.1-3.1,4.5,0,7.6c4,4,8,8.1,12,12.1c0.3,0.3,0.7,0.6,1.1,0.9
			c0.8,0.6,1.6,0.6,2.5,0c2-1.4,3.6-3.3,5.3-5c6.6-6.6,13.1-13.1,19.7-19.7c0.3-0.3,0.5-0.5,0.8-0.8c0.4,0.2,0.2,0.5,0.2,0.8
			c0,2.1-0.1,4.1,0,6.2c0.1,1.4-0.6,2.1-1.4,3c-2.3,2.3-4.6,4.6-6.9,6.9c-2.1,2-4.1,4.1-6.2,6.1c-2.1,2.1-4.2,4.2-6.2,6.4
			c-1.4,1.5-1.3,3.1,0.2,4.5c2.1,2.1,4.3,4.2,6.4,6.3c3.3,3.3,6.7,6.6,10,10c1.2,1.2,2.5,2.5,3.7,3.7c0.3,0.3,0.5,0.6,0.5,1.1
			c0,5.4,0,10.9,0,16.3c0,0.1-0.1,0.1-0.1,0.3c-0.8-0.4-1.3-1.1-1.9-1.7c-5.9-5.9-11.7-11.7-17.6-17.6c-5.3-5.3-10.6-10.6-15.8-15.9
			c-5-5-10-10-15-14.9c-2.5-2.5-5-5-7.4-7.5c-0.9-0.9-1.7-1.8-2.3-3c-0.9-1.8-0.5-3.3,0.6-4.8c1.5-2.2,3.4-4,5.3-5.8
			c6.8-6.8,13.7-13.5,20.4-20.3c8.1-8.2,16.2-16.3,24.4-24.5c2.9-2.9,5.8-5.8,8.7-8.7C416.9,485.4,417.1,485.3,417.6,484.9z"/>
	</g>
</g>
</svg>
